<svg width="218" height="96" viewBox="0 0 218 96" fill="none" xmlns="http://www.w3.org/2000/svg">
<path d="M74.8942 58V40.5455H81.7806C83.0988 40.5455 84.2238 40.7812 85.1556 41.2528C86.0931 41.7187 86.8062 42.3807 87.2948 43.2386C87.7891 44.0909 88.0363 45.0937 88.0363 46.2472C88.0363 47.4062 87.7863 48.4034 87.2863 49.2386C86.7863 50.0682 86.0618 50.7045 85.113 51.1477C84.1698 51.5909 83.0278 51.8125 81.6868 51.8125H77.0761V48.8466H81.0903C81.7948 48.8466 82.38 48.75 82.8459 48.5568C83.3118 48.3636 83.6584 48.0739 83.8857 47.6875C84.1187 47.3011 84.2351 46.821 84.2351 46.2472C84.2351 45.6676 84.1187 45.179 83.8857 44.7812C83.6584 44.3835 83.309 44.0824 82.8374 43.8778C82.3715 43.6676 81.7834 43.5625 81.0732 43.5625H78.5846V58H74.8942ZM84.3204 50.0568L88.6584 58H84.5846L80.3403 50.0568H84.3204ZM94.8399 58.2557C93.516 58.2557 92.3711 57.9744 91.4052 57.4119C90.445 56.8437 89.7035 56.054 89.1808 55.0426C88.6581 54.0256 88.3967 52.8466 88.3967 51.5057C88.3967 50.1534 88.6581 48.9716 89.1808 47.9602C89.7035 46.9432 90.445 46.1534 91.4052 45.5909C92.3711 45.0227 93.516 44.7386 94.8399 44.7386C96.1638 44.7386 97.3058 45.0227 98.266 45.5909C99.2319 46.1534 99.9763 46.9432 100.499 47.9602C101.022 48.9716 101.283 50.1534 101.283 51.5057C101.283 52.8466 101.022 54.0256 100.499 55.0426C99.9763 56.054 99.2319 56.8437 98.266 57.4119C97.3058 57.9744 96.1638 58.2557 94.8399 58.2557ZM94.8569 55.4432C95.4592 55.4432 95.962 55.2727 96.3655 54.9318C96.7689 54.5852 97.0728 54.1136 97.2774 53.517C97.4876 52.9205 97.5927 52.2415 97.5927 51.4801C97.5927 50.7188 97.4876 50.0398 97.2774 49.4432C97.0728 48.8466 96.7689 48.375 96.3655 48.0284C95.962 47.6818 95.4592 47.5085 94.8569 47.5085C94.249 47.5085 93.7376 47.6818 93.3228 48.0284C92.9138 48.375 92.6041 48.8466 92.3939 49.4432C92.1893 50.0398 92.087 50.7188 92.087 51.4801C92.087 52.2415 92.1893 52.9205 92.3939 53.517C92.6041 54.1136 92.9138 54.5852 93.3228 54.9318C93.7376 55.2727 94.249 55.4432 94.8569 55.4432ZM102.272 58V40.5455H105.903V47.108H106.014C106.173 46.7557 106.403 46.3977 106.704 46.0341C107.011 45.6648 107.408 45.358 107.897 45.1136C108.391 44.8636 109.005 44.7386 109.738 44.7386C110.693 44.7386 111.573 44.9886 112.38 45.4886C113.187 45.983 113.832 46.7301 114.315 47.7301C114.798 48.7244 115.039 49.9716 115.039 51.4716C115.039 52.9318 114.803 54.1648 114.332 55.1705C113.866 56.1705 113.229 56.929 112.423 57.446C111.621 57.9574 110.724 58.2131 109.729 58.2131C109.025 58.2131 108.425 58.0966 107.931 57.8636C107.443 57.6307 107.042 57.3381 106.729 56.9858C106.417 56.6278 106.178 56.267 106.014 55.9034H105.852V58H102.272ZM105.826 51.4545C105.826 52.233 105.934 52.9119 106.15 53.4915C106.366 54.071 106.678 54.5227 107.087 54.8466C107.496 55.1648 107.994 55.3239 108.579 55.3239C109.17 55.3239 109.67 55.1619 110.079 54.8381C110.488 54.5085 110.798 54.054 111.008 53.4744C111.224 52.8892 111.332 52.2159 111.332 51.4545C111.332 50.6989 111.227 50.0341 111.016 49.4602C110.806 48.8864 110.496 48.4375 110.087 48.1136C109.678 47.7898 109.175 47.6278 108.579 47.6278C107.988 47.6278 107.488 47.7841 107.079 48.0966C106.675 48.4091 106.366 48.8523 106.15 49.4261C105.934 50 105.826 50.6761 105.826 51.4545ZM116.022 58V44.9091H119.652V58H116.022ZM117.846 43.2216C117.306 43.2216 116.843 43.0426 116.456 42.6847C116.076 42.321 115.885 41.8864 115.885 41.3807C115.885 40.8807 116.076 40.4517 116.456 40.0938C116.843 39.7301 117.306 39.5483 117.846 39.5483C118.385 39.5483 118.846 39.7301 119.226 40.0938C119.613 40.4517 119.806 40.8807 119.806 41.3807C119.806 41.8864 119.613 42.321 119.226 42.6847C118.846 43.0426 118.385 43.2216 117.846 43.2216ZM124.751 50.4318V58H121.121V44.9091H124.581V47.2188H124.734C125.024 46.4574 125.51 45.8551 126.192 45.4119C126.874 44.9631 127.7 44.7386 128.672 44.7386C129.581 44.7386 130.374 44.9375 131.05 45.3352C131.726 45.733 132.251 46.3011 132.626 47.0398C133.001 47.7727 133.189 48.6477 133.189 49.6648V58H129.558V50.3125C129.564 49.5114 129.359 48.8864 128.945 48.4375C128.53 47.983 127.959 47.7557 127.232 47.7557C126.743 47.7557 126.311 47.8608 125.936 48.071C125.567 48.2812 125.277 48.5881 125.067 48.9915C124.862 49.3892 124.757 49.8693 124.751 50.4318ZM137.193 58L133.63 44.9091H137.304L139.332 53.7045H139.451L141.565 44.9091H145.17L147.318 53.6534H147.429L149.423 44.9091H153.088L149.534 58H145.69L143.44 49.767H143.278L141.028 58H137.193ZM159.171 58.2557C157.847 58.2557 156.702 57.9744 155.736 57.4119C154.776 56.8437 154.035 56.054 153.512 55.0426C152.989 54.0256 152.728 52.8466 152.728 51.5057C152.728 50.1534 152.989 48.9716 153.512 47.9602C154.035 46.9432 154.776 46.1534 155.736 45.5909C156.702 45.0227 157.847 44.7386 159.171 44.7386C160.495 44.7386 161.637 45.0227 162.597 45.5909C163.563 46.1534 164.308 46.9432 164.83 47.9602C165.353 48.9716 165.614 50.1534 165.614 51.5057C165.614 52.8466 165.353 54.0256 164.83 55.0426C164.308 56.054 163.563 56.8437 162.597 57.4119C161.637 57.9744 160.495 58.2557 159.171 58.2557ZM159.188 55.4432C159.79 55.4432 160.293 55.2727 160.697 54.9318C161.1 54.5852 161.404 54.1136 161.609 53.517C161.819 52.9205 161.924 52.2415 161.924 51.4801C161.924 50.7188 161.819 50.0398 161.609 49.4432C161.404 48.8466 161.1 48.375 160.697 48.0284C160.293 47.6818 159.79 47.5085 159.188 47.5085C158.58 47.5085 158.069 47.6818 157.654 48.0284C157.245 48.375 156.935 48.8466 156.725 49.4432C156.521 50.0398 156.418 50.7188 156.418 51.4801C156.418 52.2415 156.521 52.9205 156.725 53.517C156.935 54.1136 157.245 54.5852 157.654 54.9318C158.069 55.2727 158.58 55.4432 159.188 55.4432ZM172.45 58.2557C171.126 58.2557 169.981 57.9744 169.015 57.4119C168.055 56.8437 167.314 56.054 166.791 55.0426C166.268 54.0256 166.007 52.8466 166.007 51.5057C166.007 50.1534 166.268 48.9716 166.791 47.9602C167.314 46.9432 168.055 46.1534 169.015 45.5909C169.981 45.0227 171.126 44.7386 172.45 44.7386C173.774 44.7386 174.916 45.0227 175.876 45.5909C176.842 46.1534 177.586 46.9432 178.109 47.9602C178.632 48.9716 178.893 50.1534 178.893 51.5057C178.893 52.8466 178.632 54.0256 178.109 55.0426C177.586 56.054 176.842 56.8437 175.876 57.4119C174.916 57.9744 173.774 58.2557 172.45 58.2557ZM172.467 55.4432C173.069 55.4432 173.572 55.2727 173.975 54.9318C174.379 54.5852 174.683 54.1136 174.887 53.517C175.098 52.9205 175.203 52.2415 175.203 51.4801C175.203 50.7188 175.098 50.0398 174.887 49.4432C174.683 48.8466 174.379 48.375 173.975 48.0284C173.572 47.6818 173.069 47.5085 172.467 47.5085C171.859 47.5085 171.348 47.6818 170.933 48.0284C170.524 48.375 170.214 48.8466 170.004 49.4432C169.799 50.0398 169.697 50.7188 169.697 51.4801C169.697 52.2415 169.799 52.9205 170.004 53.517C170.214 54.1136 170.524 54.5852 170.933 54.9318C171.348 55.2727 171.859 55.4432 172.467 55.4432ZM184.638 58.2131C183.643 58.2131 182.743 57.9574 181.936 57.446C181.135 56.929 180.499 56.1705 180.027 55.1705C179.561 54.1648 179.328 52.9318 179.328 51.4716C179.328 49.9716 179.57 48.7244 180.052 47.7301C180.535 46.7301 181.177 45.983 181.979 45.4886C182.785 44.9886 183.669 44.7386 184.629 44.7386C185.362 44.7386 185.973 44.8636 186.462 45.1136C186.956 45.358 187.354 45.6648 187.655 46.0341C187.962 46.3977 188.195 46.7557 188.354 47.108H188.464V40.5455H192.087V58H188.507V55.9034H188.354C188.183 56.267 187.942 56.6278 187.629 56.9858C187.322 57.3381 186.922 57.6307 186.427 57.8636C185.939 58.0966 185.342 58.2131 184.638 58.2131ZM185.788 55.3239C186.374 55.3239 186.868 55.1648 187.271 54.8466C187.68 54.5227 187.993 54.071 188.209 53.4915C188.43 52.9119 188.541 52.233 188.541 51.4545C188.541 50.6761 188.433 50 188.217 49.4261C188.001 48.8523 187.689 48.4091 187.28 48.0966C186.871 47.7841 186.374 47.6278 185.788 47.6278C185.192 47.6278 184.689 47.7898 184.28 48.1136C183.871 48.4375 183.561 48.8864 183.351 49.4602C183.141 50.0341 183.035 50.6989 183.035 51.4545C183.035 52.2159 183.141 52.8892 183.351 53.4744C183.567 54.054 183.876 54.5085 184.28 54.8381C184.689 55.1619 185.192 55.3239 185.788 55.3239Z" fill="#171717"/>
<path d="M31.1526 58.7501L38.3228 51.58L43.5082 56.7654L51.8886 48.385L55.1756 51.672V42.5054H46.0089L49.2959 45.7923L43.5082 51.58L38.3228 46.3946L29.2554 55.4619C28.24 53.184 27.6755 50.6606 27.6755 48.0053C27.6755 37.8802 35.8837 29.6721 46.0089 29.6721C56.134 29.6721 64.3422 37.8802 64.3422 48.0053C64.3422 58.1307 56.134 66.3387 46.0089 66.3387C39.8971 66.3387 34.4837 63.348 31.1526 58.7501Z" fill="#404040"/>
</svg>
