<svg width="218" height="96" viewBox="0 0 218 96" fill="none" xmlns="http://www.w3.org/2000/svg">
<path d="M112.962 57H108.874L107.249 52.7725H99.8099L98.2738 57H94.2874L101.536 38.3887H105.51L112.962 57ZM106.043 49.6367L103.479 42.7305L100.965 49.6367H106.043ZM113.383 41.6895V38.3887H116.95V41.6895H113.383ZM113.383 57V43.5176H116.95V57H113.383ZM122.474 57H118.907V43.5176H122.22V45.4346C122.787 44.529 123.295 43.9323 123.744 43.6445C124.201 43.3568 124.717 43.2129 125.292 43.2129C126.105 43.2129 126.888 43.4372 127.641 43.8857L126.537 46.9961C125.936 46.6068 125.377 46.4121 124.861 46.4121C124.361 46.4121 123.938 46.5518 123.591 46.8311C123.244 47.1019 122.969 47.597 122.766 48.3164C122.571 49.0358 122.474 50.5423 122.474 52.8359V57ZM145.24 50.1572L148.883 51.3125C148.325 53.3438 147.394 54.8545 146.09 55.8447C144.795 56.8265 143.149 57.3174 141.152 57.3174C138.681 57.3174 136.649 56.4753 135.058 54.791C133.467 53.0983 132.671 50.7878 132.671 47.8594C132.671 44.7617 133.471 42.3581 135.071 40.6484C136.67 38.9303 138.774 38.0713 141.38 38.0713C143.657 38.0713 145.506 38.7441 146.928 40.0898C147.775 40.8854 148.409 42.028 148.833 43.5176L145.113 44.4062C144.893 43.4414 144.432 42.6797 143.729 42.1211C143.035 41.5625 142.189 41.2832 141.19 41.2832C139.81 41.2832 138.689 41.7783 137.826 42.7686C136.971 43.7588 136.544 45.3626 136.544 47.5801C136.544 49.9329 136.967 51.6087 137.813 52.6074C138.659 53.6061 139.76 54.1055 141.114 54.1055C142.113 54.1055 142.972 53.7881 143.691 53.1533C144.41 52.5186 144.927 51.5199 145.24 50.1572ZM153.201 47.6309L149.964 47.0469C150.328 45.7435 150.954 44.7786 151.843 44.1523C152.732 43.526 154.052 43.2129 155.804 43.2129C157.395 43.2129 158.58 43.4033 159.359 43.7842C160.137 44.1566 160.683 44.6348 160.996 45.2188C161.318 45.7943 161.479 46.8564 161.479 48.4053L161.441 52.5693C161.441 53.7542 161.496 54.6302 161.606 55.1973C161.724 55.7559 161.94 56.3568 162.253 57H158.724C158.631 56.763 158.516 56.4118 158.381 55.9463C158.322 55.7347 158.279 55.5951 158.254 55.5273C157.645 56.1198 156.993 56.5641 156.299 56.8604C155.605 57.1566 154.864 57.3047 154.077 57.3047C152.689 57.3047 151.593 56.9281 150.789 56.1748C149.994 55.4215 149.596 54.4694 149.596 53.3184C149.596 52.5566 149.778 51.8796 150.142 51.2871C150.506 50.6862 151.013 50.2292 151.665 49.916C152.325 49.5944 153.273 49.3151 154.509 49.0781C156.176 48.765 157.331 48.473 157.975 48.2021V47.8467C157.975 47.1611 157.805 46.6745 157.467 46.3867C157.128 46.0905 156.489 45.9424 155.55 45.9424C154.915 45.9424 154.42 46.0693 154.065 46.3232C153.709 46.5687 153.421 47.0046 153.201 47.6309ZM157.975 50.5254C157.518 50.6777 156.794 50.8597 155.804 51.0713C154.814 51.2829 154.166 51.4902 153.861 51.6934C153.396 52.0234 153.163 52.4424 153.163 52.9502C153.163 53.4495 153.349 53.8812 153.722 54.2451C154.094 54.609 154.568 54.791 155.144 54.791C155.787 54.791 156.401 54.5794 156.984 54.1562C157.416 53.8346 157.7 53.4411 157.835 52.9756C157.928 52.6709 157.975 52.0911 157.975 51.2363V50.5254ZM166.863 57H163.296V43.5176H166.609V45.4346C167.176 44.529 167.684 43.9323 168.132 43.6445C168.59 43.3568 169.106 43.2129 169.681 43.2129C170.494 43.2129 171.277 43.4372 172.03 43.8857L170.925 46.9961C170.325 46.6068 169.766 46.4121 169.25 46.4121C168.75 46.4121 168.327 46.5518 167.98 46.8311C167.633 47.1019 167.358 47.597 167.155 48.3164C166.96 49.0358 166.863 50.5423 166.863 52.8359V57Z" fill="#171717"/>
<path d="M58.8334 62.6666H33.1667V64.5C33.1667 65.5125 32.3459 66.3333 31.3334 66.3333H29.5001C28.4876 66.3333 27.6667 65.5125 27.6667 64.5V48L32.2745 35.7125C32.8112 34.2814 34.1793 33.3333 35.7077 33.3333H56.2924C57.8209 33.3333 59.1889 34.2814 59.7257 35.7125L64.3334 48V64.5C64.3334 65.5125 63.5126 66.3333 62.5001 66.3333H60.6667C59.6542 66.3333 58.8334 65.5125 58.8334 64.5V62.6666ZM31.5827 48H60.4174L56.2924 37H35.7077L31.5827 48ZM35.9167 57.1666C37.4355 57.1666 38.6667 55.9354 38.6667 54.4166C38.6667 52.8979 37.4355 51.6666 35.9167 51.6666C34.398 51.6666 33.1667 52.8979 33.1667 54.4166C33.1667 55.9354 34.398 57.1666 35.9167 57.1666ZM56.0834 57.1666C57.6021 57.1666 58.8334 55.9354 58.8334 54.4166C58.8334 52.8979 57.6021 51.6666 56.0834 51.6666C54.5647 51.6666 53.3334 52.8979 53.3334 54.4166C53.3334 55.9354 54.5647 57.1666 56.0834 57.1666Z" fill="#404040"/>
</svg>
