<svg width="218" height="96" viewBox="0 0 218 96" fill="none" xmlns="http://www.w3.org/2000/svg">
<path d="M84.7472 40.592C88.0752 40.592 90.5365 41.372 92.1312 42.932C93.7432 44.4747 94.5492 46.6933 94.5492 49.588C94.5492 51.4773 94.1505 53.1327 93.3532 54.554C92.5732 55.958 91.4378 57.05 89.9472 57.83C88.4565 58.61 86.6452 59 84.5132 59C84.2532 59 83.8978 58.9913 83.4472 58.974C83.0138 58.9567 82.5545 58.948 82.0692 58.948C81.6012 58.9307 81.1678 58.922 80.7692 58.922C80.0585 58.922 79.3652 58.9307 78.6892 58.948C78.0132 58.948 77.4585 58.9653 77.0252 59V58.48C77.5972 58.4453 78.0218 58.376 78.2992 58.272C78.5938 58.168 78.7845 57.96 78.8712 57.648C78.9752 57.336 79.0272 56.868 79.0272 56.244V43.348C79.0272 42.7067 78.9752 42.2387 78.8712 41.944C78.7845 41.632 78.5938 41.424 78.2992 41.32C78.0218 41.1987 77.5972 41.1293 77.0252 41.112V40.592C77.4585 40.6093 78.0132 40.6353 78.6892 40.67C79.3652 40.6873 80.0412 40.6873 80.7172 40.67C81.3412 40.6527 82.0432 40.6353 82.8232 40.618C83.6032 40.6007 84.2445 40.592 84.7472 40.592ZM84.5132 41.06C83.7158 41.06 83.1958 41.2073 82.9532 41.502C82.7105 41.7967 82.5892 42.3947 82.5892 43.296V56.296C82.5892 57.1973 82.7105 57.7953 82.9532 58.09C83.2132 58.3847 83.7418 58.532 84.5392 58.532C86.1512 58.532 87.4078 58.194 88.3092 57.518C89.2278 56.8247 89.8692 55.8193 90.2332 54.502C90.6145 53.1847 90.8052 51.5813 90.8052 49.692C90.8052 47.7507 90.5972 46.1473 90.1812 44.882C89.7825 43.5993 89.1238 42.646 88.2052 42.022C87.2865 41.3807 86.0558 41.06 84.5132 41.06ZM102.506 40.592V41.112C101.951 41.1293 101.526 41.1987 101.232 41.32C100.954 41.424 100.764 41.632 100.66 41.944C100.556 42.2387 100.504 42.7067 100.504 43.348V56.244C100.504 56.868 100.556 57.336 100.66 57.648C100.764 57.96 100.954 58.168 101.232 58.272C101.526 58.376 101.951 58.4453 102.506 58.48V59C102.072 58.9653 101.518 58.948 100.842 58.948C100.166 58.9307 99.4811 58.922 98.7878 58.922C98.0078 58.922 97.2798 58.9307 96.6038 58.948C95.9278 58.948 95.3731 58.9653 94.9398 59V58.48C95.5118 58.4453 95.9365 58.376 96.2138 58.272C96.5085 58.168 96.6991 57.96 96.7858 57.648C96.8898 57.336 96.9418 56.868 96.9418 56.244V43.348C96.9418 42.7067 96.8898 42.2387 96.7858 41.944C96.6991 41.632 96.5085 41.424 96.2138 41.32C95.9365 41.1987 95.5118 41.1293 94.9398 41.112V40.592C95.3731 40.6093 95.9278 40.6267 96.6038 40.644C97.2798 40.6613 98.0078 40.67 98.7878 40.67C99.4811 40.67 100.166 40.6613 100.842 40.644C101.518 40.6267 102.072 40.6093 102.506 40.592ZM111.092 40.514L117.41 56.816C117.67 57.44 117.948 57.8733 118.242 58.116C118.554 58.3413 118.84 58.4627 119.1 58.48V59C118.65 58.9653 118.104 58.948 117.462 58.948C116.838 58.9307 116.197 58.922 115.538 58.922C114.776 58.922 114.065 58.9307 113.406 58.948C112.748 58.948 112.21 58.9653 111.794 59V58.48C112.678 58.4453 113.242 58.298 113.484 58.038C113.727 57.7607 113.675 57.18 113.328 56.296L108.752 43.946L109.22 43.374L105.06 54.164C104.731 55.0307 104.532 55.7413 104.462 56.296C104.393 56.8507 104.436 57.284 104.592 57.596C104.748 57.908 105.008 58.1333 105.372 58.272C105.736 58.3933 106.187 58.4627 106.724 58.48V59C106.17 58.9653 105.632 58.948 105.112 58.948C104.592 58.9307 104.072 58.922 103.552 58.922C103.171 58.922 102.807 58.9307 102.46 58.948C102.131 58.948 101.836 58.9653 101.576 59V58.48C101.958 58.3933 102.33 58.168 102.694 57.804C103.076 57.44 103.44 56.8073 103.786 55.906L109.74 40.514C109.948 40.5313 110.174 40.54 110.416 40.54C110.659 40.54 110.884 40.5313 111.092 40.514ZM113.354 51.512V52.032H105.606L105.866 51.512H113.354ZM139.556 40.592V41.112C139.001 41.1293 138.576 41.1987 138.282 41.32C137.987 41.424 137.788 41.632 137.684 41.944C137.597 42.2387 137.554 42.7067 137.554 43.348V56.244C137.554 56.868 137.606 57.336 137.71 57.648C137.814 57.96 138.004 58.168 138.282 58.272C138.576 58.376 139.001 58.4453 139.556 58.48V59C139.105 58.9653 138.533 58.948 137.84 58.948C137.146 58.9307 136.444 58.922 135.734 58.922C134.954 58.922 134.217 58.9307 133.524 58.948C132.848 58.948 132.302 58.9653 131.886 59V58.48C132.475 58.4453 132.917 58.376 133.212 58.272C133.524 58.168 133.732 57.96 133.836 57.648C133.94 57.336 133.992 56.868 133.992 56.244V42.1L134.174 42.126L127.726 59.078H127.31L120.446 42.256V55.152C120.446 55.984 120.498 56.634 120.602 57.102C120.706 57.5527 120.931 57.882 121.278 58.09C121.642 58.2807 122.188 58.4107 122.916 58.48V59C122.586 58.9653 122.162 58.948 121.642 58.948C121.122 58.9307 120.628 58.922 120.16 58.922C119.744 58.922 119.319 58.9307 118.886 58.948C118.47 58.948 118.123 58.9653 117.846 59V58.48C118.418 58.4107 118.842 58.2807 119.12 58.09C119.414 57.8993 119.605 57.5873 119.692 57.154C119.796 56.7207 119.848 56.1227 119.848 55.36V43.348C119.848 42.7067 119.796 42.2387 119.692 41.944C119.605 41.632 119.414 41.424 119.12 41.32C118.842 41.1987 118.418 41.1293 117.846 41.112V40.592C118.123 40.6093 118.47 40.6267 118.886 40.644C119.319 40.6613 119.744 40.67 120.16 40.67C120.801 40.67 121.425 40.6613 122.032 40.644C122.638 40.6267 123.176 40.6093 123.644 40.592L129.234 54.554L128.662 55.022L134.096 40.67C134.356 40.67 134.624 40.67 134.902 40.67C135.196 40.67 135.474 40.67 135.734 40.67C136.444 40.67 137.146 40.6613 137.84 40.644C138.533 40.6267 139.105 40.6093 139.556 40.592ZM148.847 40.228C150.615 40.228 152.167 40.6007 153.501 41.346C154.836 42.0913 155.867 43.166 156.595 44.57C157.341 45.9567 157.713 47.6467 157.713 49.64C157.713 51.5813 157.332 53.28 156.569 54.736C155.824 56.192 154.775 57.3273 153.423 58.142C152.089 58.9567 150.555 59.364 148.821 59.364C147.053 59.364 145.502 58.9913 144.167 58.246C142.833 57.5007 141.793 56.426 141.047 55.022C140.319 53.618 139.955 51.928 139.955 49.952C139.955 48.0107 140.337 46.312 141.099 44.856C141.862 43.4 142.911 42.2647 144.245 41.45C145.58 40.6353 147.114 40.228 148.847 40.228ZM148.743 40.696C147.721 40.696 146.828 41.086 146.065 41.866C145.32 42.646 144.739 43.7207 144.323 45.09C143.907 46.4593 143.699 48.0453 143.699 49.848C143.699 51.6853 143.933 53.2887 144.401 54.658C144.869 56.01 145.502 57.0587 146.299 57.804C147.097 58.532 147.972 58.896 148.925 58.896C149.948 58.896 150.832 58.506 151.577 57.726C152.34 56.946 152.929 55.8713 153.345 54.502C153.761 53.1153 153.969 51.5293 153.969 49.744C153.969 47.8893 153.735 46.286 153.267 44.934C152.799 43.582 152.167 42.542 151.369 41.814C150.589 41.0687 149.714 40.696 148.743 40.696ZM174.966 40.592V41.112C174.412 41.164 173.987 41.294 173.692 41.502C173.398 41.6927 173.198 42.0047 173.094 42.438C173.008 42.854 172.964 43.452 172.964 44.232V59.078C172.808 59.0607 172.635 59.052 172.444 59.052C172.271 59.052 172.08 59.0607 171.872 59.078L160.718 43.92V55.152C160.718 55.984 160.77 56.634 160.874 57.102C160.978 57.5527 161.204 57.882 161.55 58.09C161.914 58.2807 162.46 58.4107 163.188 58.48V59C162.859 58.9653 162.434 58.948 161.914 58.948C161.394 58.9307 160.9 58.922 160.432 58.922C160.016 58.922 159.592 58.9307 159.158 58.948C158.742 58.948 158.396 58.9653 158.118 59V58.48C158.69 58.4107 159.115 58.2807 159.392 58.09C159.687 57.8993 159.878 57.5873 159.964 57.154C160.068 56.7207 160.12 56.1227 160.12 55.36V43.348C160.12 42.7067 160.068 42.2387 159.964 41.944C159.878 41.632 159.687 41.424 159.392 41.32C159.115 41.1987 158.69 41.1293 158.118 41.112V40.592C158.396 40.6093 158.742 40.6267 159.158 40.644C159.592 40.6613 160.016 40.67 160.432 40.67C160.831 40.67 161.221 40.6613 161.602 40.644C161.984 40.6267 162.322 40.6093 162.616 40.592L172.366 53.566V44.44C172.366 43.5907 172.314 42.9407 172.21 42.49C172.106 42.0393 171.881 41.71 171.534 41.502C171.188 41.294 170.642 41.164 169.896 41.112V40.592C170.226 40.6093 170.65 40.6267 171.17 40.644C171.708 40.6613 172.202 40.67 172.652 40.67C173.086 40.67 173.51 40.6613 173.926 40.644C174.36 40.6267 174.706 40.6093 174.966 40.592ZM182.866 40.592C186.194 40.592 188.655 41.372 190.25 42.932C191.862 44.4747 192.668 46.6933 192.668 49.588C192.668 51.4773 192.269 53.1327 191.472 54.554C190.692 55.958 189.556 57.05 188.066 57.83C186.575 58.61 184.764 59 182.632 59C182.372 59 182.016 58.9913 181.566 58.974C181.132 58.9567 180.673 58.948 180.188 58.948C179.72 58.9307 179.286 58.922 178.888 58.922C178.177 58.922 177.484 58.9307 176.808 58.948C176.132 58.948 175.577 58.9653 175.144 59V58.48C175.716 58.4453 176.14 58.376 176.418 58.272C176.712 58.168 176.903 57.96 176.99 57.648C177.094 57.336 177.146 56.868 177.146 56.244V43.348C177.146 42.7067 177.094 42.2387 176.99 41.944C176.903 41.632 176.712 41.424 176.418 41.32C176.14 41.1987 175.716 41.1293 175.144 41.112V40.592C175.577 40.6093 176.132 40.6353 176.808 40.67C177.484 40.6873 178.16 40.6873 178.836 40.67C179.46 40.6527 180.162 40.6353 180.942 40.618C181.722 40.6007 182.363 40.592 182.866 40.592ZM182.632 41.06C181.834 41.06 181.314 41.2073 181.072 41.502C180.829 41.7967 180.708 42.3947 180.708 43.296V56.296C180.708 57.1973 180.829 57.7953 181.072 58.09C181.332 58.3847 181.86 58.532 182.658 58.532C184.27 58.532 185.526 58.194 186.428 57.518C187.346 56.8247 187.988 55.8193 188.352 54.502C188.733 53.1847 188.924 51.5813 188.924 49.692C188.924 47.7507 188.716 46.1473 188.3 44.882C187.901 43.5993 187.242 42.646 186.324 42.022C185.405 41.3807 184.174 41.06 182.632 41.06Z" fill="#171717"/>
<path d="M46.0089 66.3387C35.8837 66.3387 27.6755 58.1307 27.6755 48.0053C27.6755 37.8802 35.8837 29.6721 46.0089 29.6721C56.134 29.6721 64.3422 37.8802 64.3422 48.0053C64.3422 58.1307 56.134 66.3387 46.0089 66.3387ZM41.4255 42.5054L36.8422 47.0887L46.0074 56.2553L55.1756 47.0887L50.5922 42.5054H41.4255Z" fill="#404040"/>
</svg>
