<svg width="218" height="96" viewBox="0 0 218 96" fill="none" xmlns="http://www.w3.org/2000/svg">
<path d="M91.313 52.0806C91.313 53.1385 91.0404 54.054 90.4951 54.8271C89.958 55.6003 89.2052 56.1943 88.2368 56.6094C87.2684 57.0163 86.1576 57.2197 84.9043 57.2197C84.5544 57.2197 84.123 57.1953 83.6104 57.1465C83.1058 57.1058 82.4303 56.9837 81.584 56.7803C80.7458 56.5768 79.8709 56.2757 78.9595 55.877V51.7266C79.814 52.2555 80.6522 52.695 81.4741 53.0449C82.3042 53.3949 83.1912 53.5698 84.1353 53.5698C85.006 53.5698 85.5675 53.4274 85.8198 53.1426C86.0802 52.8496 86.2104 52.577 86.2104 52.3247C86.2104 51.869 85.9907 51.4865 85.5513 51.1772C85.1118 50.8599 84.473 50.5343 83.6348 50.2007C82.707 49.8101 81.8932 49.3869 81.1934 48.9312C80.4935 48.4673 79.9198 47.8895 79.4722 47.1978C79.0327 46.506 78.813 45.6882 78.813 44.7441C78.813 43.8327 79.0368 43.0107 79.4844 42.2783C79.932 41.5378 80.6156 40.9478 81.5352 40.5083C82.4548 40.0688 83.5778 39.8491 84.9043 39.8491C85.8483 39.8491 86.7191 39.9427 87.5166 40.1299C88.3223 40.3089 88.9855 40.5124 89.5063 40.7402C90.0272 40.9681 90.3853 41.1471 90.5806 41.2773V45.2446C89.8888 44.7482 89.1157 44.3047 88.2612 43.9141C87.4149 43.5234 86.5075 43.3281 85.5391 43.3281C84.9043 43.3281 84.4445 43.4502 84.1597 43.6943C83.8748 43.9385 83.7324 44.2396 83.7324 44.5977C83.7324 44.9313 83.8748 45.2202 84.1597 45.4644C84.4445 45.7085 84.9531 46.0055 85.6855 46.3555C86.9876 46.9658 88.0293 47.5151 88.8105 48.0034C89.5918 48.4917 90.2021 49.0573 90.6416 49.7002C91.0892 50.335 91.313 51.1284 91.313 52.0806ZM120.697 40.0811L113.373 57.2197H110.418L106.024 47.2466L101.52 57.2197H98.541L91.3633 40.0811H96.6489L100.165 49.4561L104.193 40.0811H107.843L111.798 49.4561L115.472 40.0811H120.697ZM138.691 57H133.467L132.087 53.5698H124.739L123.335 57H118.11L125.593 40.0811H131.233L138.691 57ZM130.916 50.6279L128.438 44.4512L125.935 50.6279H130.916ZM154.086 45.4033C154.086 46.0299 153.976 46.6444 153.756 47.2466C153.545 47.8407 153.199 48.3981 152.719 48.9189C152.239 49.4316 151.588 49.8507 150.766 50.1763C149.952 50.4937 148.992 50.6523 147.885 50.6523H144.54V57H139.438V40.0811H147.885C148.992 40.0811 149.952 40.2438 150.766 40.5693C151.588 40.8949 152.239 41.318 152.719 41.8389C153.199 42.3597 153.545 42.9253 153.756 43.5356C153.976 44.146 154.086 44.7686 154.086 45.4033ZM148.886 45.4277C148.886 44.6221 148.646 44.0728 148.166 43.7798C147.694 43.4787 146.843 43.3281 145.614 43.3281H144.54V47.4053H145.639C146.485 47.4053 147.136 47.3524 147.592 47.2466C148.048 47.1408 148.377 46.9455 148.581 46.6606C148.784 46.3758 148.886 45.9648 148.886 45.4277ZM172.813 48.8457C172.813 50.5791 172.496 51.9707 171.861 53.0205C171.234 54.0703 170.494 54.9207 169.639 55.5718C168.427 56.5239 166.73 57 164.549 57H155.418V40.0811H162.449C163.507 40.0811 164.41 40.138 165.159 40.252C165.916 40.3577 166.596 40.5124 167.198 40.7158C167.8 40.9111 168.313 41.1349 168.736 41.3872C169.159 41.6313 169.537 41.8958 169.871 42.1807C170.449 42.6527 170.953 43.2101 171.385 43.853C171.824 44.4959 172.17 45.2406 172.422 46.0869C172.683 46.9333 172.813 47.8529 172.813 48.8457ZM167.625 48.626C167.625 47.2507 167.361 46.1805 166.832 45.4155C166.311 44.6424 165.68 44.1257 164.939 43.8652C164.207 43.6048 163.458 43.4746 162.693 43.4746H160.521V53.4966H162.693C164.028 53.4966 165.184 53.1792 166.16 52.5444C167.137 51.9097 167.625 50.6035 167.625 48.626ZM192.578 48.5283C192.578 50.1071 192.211 51.5597 191.479 52.8862C190.755 54.2127 189.672 55.2666 188.232 56.0479C186.792 56.8291 185.038 57.2197 182.971 57.2197C180.879 57.2197 179.109 56.8128 177.661 55.999C176.212 55.1852 175.134 54.1151 174.426 52.7886C173.726 51.4621 173.376 50.042 173.376 48.5283C173.376 47.0065 173.726 45.5864 174.426 44.2681C175.126 42.9416 176.2 41.8755 177.648 41.0698C179.105 40.256 180.879 39.8491 182.971 39.8491C184.533 39.8491 185.925 40.0811 187.146 40.5449C188.374 41.0088 189.383 41.6395 190.173 42.437C190.962 43.2264 191.56 44.1501 191.967 45.208C192.374 46.2578 192.578 47.3646 192.578 48.5283ZM187.377 48.5283C187.377 47.8936 187.284 47.3158 187.097 46.7949C186.91 46.266 186.625 45.8102 186.242 45.4277C185.868 45.0371 185.408 44.736 184.863 44.5244C184.318 44.3047 183.687 44.1948 182.971 44.1948C181.604 44.1948 180.529 44.5936 179.748 45.3911C178.967 46.1886 178.576 47.2344 178.576 48.5283C178.576 49.8223 178.967 50.8721 179.748 51.6777C180.537 52.4753 181.612 52.874 182.971 52.874C183.907 52.874 184.704 52.6909 185.363 52.3247C186.022 51.9504 186.523 51.4377 186.865 50.7866C187.207 50.1274 187.377 49.3747 187.377 48.5283Z" fill="#171717"/>
<path d="M55.5467 30.2037L52.9538 32.7964L57.1575 37H47.8337V40.6667H57.1575L52.9538 44.8703L55.5467 47.463L64.1764 38.8334L55.5467 30.2037ZM36.8336 47.0833C41.39 47.0833 45.0837 43.3897 45.0837 38.8334C45.0837 34.277 41.39 30.5834 36.8336 30.5834C32.2773 30.5834 28.5836 34.277 28.5836 38.8334C28.5836 43.3897 32.2773 47.0833 36.8336 47.0833ZM34.843 59L39.0466 63.2037L36.4539 65.7964L27.8242 57.1667L36.4539 48.537L39.0466 51.1297L34.843 55.3333H44.167V59H34.843ZM49.667 49.8333C48.6545 49.8333 47.8337 50.6541 47.8337 51.6667V62.6667C47.8337 63.6792 48.6545 64.5 49.667 64.5H60.667C61.6794 64.5 62.5004 63.6792 62.5004 62.6667V51.6667C62.5004 50.6541 61.6794 49.8333 60.667 49.8333H49.667Z" fill="#404040"/>
</svg>
