<svg width="218" height="96" viewBox="0 0 218 96" fill="none" xmlns="http://www.w3.org/2000/svg">
<path d="M31.6272 67V34.3438H37.8059L42.4446 58.2051L46.8049 34.3438H53.0207V67H48.5862V54.8281L48.7717 43.6582L44.3743 66.8516H40.4221L35.8391 43.6582L36.0247 54.8281V67H31.6272ZM53.728 67L58.3853 34.3438H64.9536L69.9077 67H65.2691L64.4898 61.1738H59.2202L58.5152 67H53.728ZM59.7027 57.1846H63.9702L61.7808 40.7822H61.7066L59.7027 57.1846ZM70.5965 67V34.3438H75.5691V49.373L80.5418 34.3438H85.6814L80.2635 50.4492L86.1082 67H80.8572L75.6063 51.748V67H70.5965ZM86.5372 67V34.3438H94.7569C96.4639 34.3438 97.738 34.6777 98.5792 35.3457C99.4203 36.0137 99.9708 36.9909 100.231 38.2773C100.503 39.5638 100.639 41.1348 100.639 42.9902C100.639 44.9076 100.441 46.4167 100.045 47.5176C99.6615 48.6061 98.8699 49.3359 97.67 49.707C98.239 49.806 98.7152 50.041 99.0987 50.4121C99.4822 50.7708 99.7914 51.3027 100.026 52.0078C100.261 52.7005 100.428 53.5973 100.527 54.6982C100.639 55.7868 100.694 57.1227 100.694 58.7061C100.694 58.8298 100.694 59.1761 100.694 59.7451C100.694 60.3141 100.694 60.9883 100.694 61.7676C100.707 62.5345 100.719 63.3014 100.732 64.0684C100.744 64.8353 100.762 65.4909 100.787 66.0352C100.812 66.5794 100.843 66.901 100.88 67H95.9073C95.8702 66.9382 95.8393 66.6227 95.8145 66.0537C95.8022 65.4723 95.7836 64.7363 95.7589 63.8457C95.7465 62.9551 95.7341 61.9964 95.7218 60.9697C95.7218 59.943 95.7218 58.9349 95.7218 57.9453C95.7218 56.9434 95.7218 56.0589 95.7218 55.292C95.7218 54.3148 95.6475 53.5788 95.4991 53.084C95.363 52.5768 95.1033 52.2243 94.7198 52.0264C94.3487 51.8285 93.8106 51.7109 93.1055 51.6738L91.5098 51.5811V67H86.5372ZM91.5284 47.7217H93.5138C94.1199 47.7217 94.5776 47.5856 94.8868 47.3135C95.2084 47.0413 95.4249 46.5404 95.5362 45.8105C95.6599 45.0807 95.7218 44.0293 95.7218 42.6562V42.4521C95.7218 41.3018 95.6661 40.4173 95.5548 39.7988C95.4434 39.1803 95.2084 38.7536 94.8497 38.5186C94.5033 38.2835 93.9591 38.166 93.2169 38.166H91.5284V47.7217ZM109.529 67.3711C107.834 67.3711 106.449 67.0124 105.372 66.2949C104.309 65.5775 103.523 64.5137 103.016 63.1035C102.509 61.6934 102.255 59.9492 102.255 57.8711V42.9346C102.255 41.0544 102.503 39.4463 102.997 38.1104C103.492 36.7744 104.278 35.7477 105.354 35.0303C106.43 34.3128 107.84 33.9541 109.584 33.9541C110.896 33.9541 112.003 34.1582 112.906 34.5664C113.809 34.9746 114.538 35.5684 115.095 36.3477C115.652 37.1146 116.054 38.0547 116.301 39.168C116.561 40.2689 116.691 41.5244 116.691 42.9346V57.8711C116.691 59.9492 116.443 61.6934 115.949 63.1035C115.466 64.5137 114.699 65.5775 113.648 66.2949C112.596 67.0124 111.223 67.3711 109.529 67.3711ZM109.529 63.0664C110.147 63.0664 110.611 62.8809 110.92 62.5098C111.23 62.1387 111.434 61.5758 111.533 60.8213C111.644 60.0544 111.7 59.0895 111.7 57.9268V42.7119C111.7 41.2894 111.564 40.1947 111.291 39.4277C111.032 38.6484 110.463 38.2588 109.584 38.2588C108.681 38.2588 108.069 38.6361 107.747 39.3906C107.426 40.1328 107.265 41.2337 107.265 42.6934V57.9268C107.265 59.1143 107.314 60.0915 107.413 60.8584C107.525 61.613 107.741 62.1696 108.063 62.5283C108.397 62.887 108.885 63.0664 109.529 63.0664ZM123.486 67V34.3438H128.459V47.5547H132.912V34.3438H137.885V67H132.912V51.8223H128.459V67H123.486ZM138.573 67L143.231 34.3438H149.799L154.753 67H150.114L149.335 61.1738H144.066L143.361 67H138.573ZM144.548 57.1846H148.816L146.626 40.7822H146.552L144.548 57.1846ZM155.442 67V34.3438H163.662C165.369 34.3438 166.643 34.6777 167.484 35.3457C168.325 36.0137 168.875 36.9909 169.135 38.2773C169.407 39.5638 169.543 41.1348 169.543 42.9902C169.543 44.9076 169.346 46.4167 168.95 47.5176C168.566 48.6061 167.775 49.3359 166.575 49.707C167.144 49.806 167.62 50.041 168.003 50.4121C168.387 50.7708 168.696 51.3027 168.931 52.0078C169.166 52.7005 169.333 53.5973 169.432 54.6982C169.543 55.7868 169.599 57.1227 169.599 58.7061C169.599 58.8298 169.599 59.1761 169.599 59.7451C169.599 60.3141 169.599 60.9883 169.599 61.7676C169.611 62.5345 169.624 63.3014 169.636 64.0684C169.649 64.8353 169.667 65.4909 169.692 66.0352C169.717 66.5794 169.748 66.901 169.785 67H164.812C164.775 66.9382 164.744 66.6227 164.719 66.0537C164.707 65.4723 164.688 64.7363 164.664 63.8457C164.651 62.9551 164.639 61.9964 164.626 60.9697C164.626 59.943 164.626 58.9349 164.626 57.9453C164.626 56.9434 164.626 56.0589 164.626 55.292C164.626 54.3148 164.552 53.5788 164.404 53.084C164.268 52.5768 164.008 52.2243 163.624 52.0264C163.253 51.8285 162.715 51.7109 162.01 51.6738L160.415 51.5811V67H155.442ZM160.433 47.7217H162.418C163.025 47.7217 163.482 47.5856 163.791 47.3135C164.113 47.0413 164.33 46.5404 164.441 45.8105C164.565 45.0807 164.626 44.0293 164.626 42.6562V42.4521C164.626 41.3018 164.571 40.4173 164.459 39.7988C164.348 39.1803 164.113 38.7536 163.754 38.5186C163.408 38.2835 162.864 38.166 162.122 38.166H160.433V47.7217ZM171.568 67V34.3438H178.897C180.555 34.3438 181.885 34.6777 182.886 35.3457C183.888 36.0013 184.612 36.9538 185.057 38.2031C185.515 39.4525 185.744 40.9616 185.744 42.7305L185.762 57.4629C185.762 59.6029 185.527 61.3841 185.057 62.8066C184.6 64.2168 183.858 65.2682 182.831 65.9609C181.804 66.6536 180.437 67 178.73 67H171.568ZM176.541 63.1406H178.174C178.755 63.1406 179.237 63.0231 179.621 62.7881C180.017 62.5531 180.307 62.1387 180.493 61.5449C180.691 60.9388 180.79 60.0853 180.79 58.9844L180.771 42.8604C180.771 41.1904 180.567 39.9906 180.159 39.2607C179.751 38.5309 179.033 38.166 178.007 38.166H176.541V63.1406Z" fill="#171717"/>
</svg>
