<svg width="218" height="96" viewBox="0 0 218 96" fill="none" xmlns="http://www.w3.org/2000/svg">
<path d="M83.8652 43.729L86.8438 52.5547L89.6636 43.729H87.9668V40.604H94.5952V43.729H92.8984L95.9136 52.5547L98.8188 43.729H96.9634V40.604H104.349V43.729H102.347L97.2441 59.0977H93.8384L90.9453 50.6992L88.1987 59.0977H84.6709L79.4219 43.729H77.4688V40.604H85.7695V43.729H83.8652ZM113.408 51.2974V56.0459H115.483V59H109.331V57.999C108.167 58.7965 107.003 59.1953 105.839 59.1953C104.431 59.1953 103.304 58.8332 102.458 58.1089C101.612 57.3846 101.188 56.408 101.188 55.1792C101.188 53.8771 101.66 52.8354 102.604 52.0542C103.557 51.2648 104.818 50.8701 106.389 50.8701C106.934 50.8701 107.418 50.9312 107.841 51.0532C108.273 51.1672 108.769 51.3665 109.331 51.6514V50.626C109.331 49.9749 109.127 49.4541 108.72 49.0635C108.313 48.6729 107.703 48.4775 106.889 48.4775C106.002 48.4775 105.217 48.8193 104.533 49.5029L101.237 48.9048C102.238 46.8866 104.305 45.8774 107.438 45.8774C109.587 45.8774 111.117 46.321 112.028 47.208C112.948 48.0869 113.408 49.45 113.408 51.2974ZM106.755 56.644C107.487 56.644 108.346 56.2046 109.331 55.3257V54.1782C108.452 53.6086 107.646 53.3237 106.914 53.3237C106.328 53.3237 105.88 53.4621 105.571 53.7388C105.262 54.0155 105.107 54.4102 105.107 54.9229C105.107 56.0703 105.656 56.644 106.755 56.644ZM129.107 50.8213V56.0459H131.036V59H125.006V51.1509C125.006 50.5487 124.912 50.1133 124.725 49.8447C124.546 49.568 124.241 49.4297 123.81 49.4297C123.028 49.4297 122.243 49.7104 121.454 50.272V56.0459H123.456V59H115.436V56.0459H117.389V49.1733H115.436V46.1704H121.454V47.3789C122.674 46.4593 123.928 45.9995 125.213 45.9995C126.491 45.9995 127.459 46.4064 128.119 47.2202C128.778 48.0259 129.107 49.2262 129.107 50.8213ZM150.631 43.729H148.263V40.604H156.479V43.729H153.915V59.1221H149.838L141.879 45.4746V55.875H144.186V59H136.129V55.875H138.607V43.729H136.129V40.604H143.856L150.631 52.103V43.729ZM167.344 51.2974V56.0459H169.419V59H163.267V57.999C162.103 58.7965 160.94 59.1953 159.776 59.1953C158.368 59.1953 157.241 58.8332 156.395 58.1089C155.548 57.3846 155.125 56.408 155.125 55.1792C155.125 53.8771 155.597 52.8354 156.541 52.0542C157.493 51.2648 158.755 50.8701 160.325 50.8701C160.87 50.8701 161.355 50.9312 161.778 51.0532C162.209 51.1672 162.706 51.3665 163.267 51.6514V50.626C163.267 49.9749 163.064 49.4541 162.657 49.0635C162.25 48.6729 161.639 48.4775 160.826 48.4775C159.939 48.4775 159.153 48.8193 158.47 49.5029L155.174 48.9048C156.175 46.8866 158.242 45.8774 161.375 45.8774C163.523 45.8774 165.053 46.321 165.965 47.208C166.884 48.0869 167.344 49.45 167.344 51.2974ZM160.691 56.644C161.424 56.644 162.282 56.2046 163.267 55.3257V54.1782C162.388 53.6086 161.583 53.3237 160.85 53.3237C160.264 53.3237 159.817 53.4621 159.507 53.7388C159.198 54.0155 159.043 54.4102 159.043 54.9229C159.043 56.0703 159.593 56.644 160.691 56.644ZM175.646 42.5205C175.646 43.1715 175.423 43.7127 174.975 44.144C174.536 44.5672 174.011 44.7788 173.4 44.7788C172.782 44.7788 172.249 44.5591 171.801 44.1196C171.362 43.672 171.142 43.139 171.142 42.5205C171.142 41.9102 171.362 41.3853 171.801 40.9458C172.249 40.4982 172.782 40.2744 173.4 40.2744C174.011 40.2744 174.536 40.4982 174.975 40.9458C175.423 41.3853 175.646 41.9102 175.646 42.5205ZM177.294 56.0459V59H169.372V56.0459H171.325V49.1733H169.372V46.1704H175.39V56.0459H177.294ZM190.992 50.8213V56.0459H192.921V59H186.891V51.1509C186.891 50.5487 186.797 50.1133 186.61 49.8447C186.431 49.568 186.126 49.4297 185.694 49.4297C184.913 49.4297 184.128 49.7104 183.338 50.272V56.0459H185.34V59H177.32V56.0459H179.273V49.1733H177.32V46.1704H183.338V47.3789C184.559 46.4593 185.812 45.9995 187.098 45.9995C188.376 45.9995 189.344 46.4064 190.003 47.2202C190.663 48.0259 190.992 49.2262 190.992 50.8213Z" fill="#171717"/>
<path d="M40.5001 46.1667L40.5011 31.5H37.4073L33.1667 32.6363V36.9056L36.8334 35.9183V46.1667H40.5001ZM64.3334 40.6667L57.0001 31.5L49.6667 40.6667H55.1667V64.5H58.8334V40.6667H64.3334ZM38.6667 56.25C37.6542 56.25 36.8334 55.4292 36.8334 54.4167C36.8334 53.4041 37.6542 52.5833 38.6667 52.5833C39.6793 52.5833 40.5001 53.4041 40.5001 54.4167C40.5001 55.4292 39.6793 56.25 38.6667 56.25ZM43.3837 57.2466C43.8809 56.4198 44.1667 55.4516 44.1667 54.4167C44.1667 51.379 41.7043 48.9167 38.6667 48.9167C35.6292 48.9167 33.1667 51.379 33.1667 54.4167C33.1667 57.1108 35.1039 59.3526 37.6613 59.825L34.9621 64.5H39.196L43.3837 57.2466Z" fill="#404040"/>
</svg>
