<svg width="218" height="96" viewBox="0 0 218 96" fill="none" xmlns="http://www.w3.org/2000/svg">
<path d="M90.4052 58V40.5455H97.6837C98.9905 40.5455 100.084 40.7301 100.965 41.0994C101.851 41.4687 102.516 41.9858 102.959 42.6506C103.408 43.3153 103.633 44.0852 103.633 44.9602C103.633 45.625 103.493 46.2188 103.215 46.7415C102.936 47.2585 102.553 47.6875 102.064 48.0284C101.576 48.3693 101.01 48.608 100.368 48.7443V48.9148C101.073 48.9489 101.723 49.1392 102.32 49.4858C102.922 49.8324 103.405 50.3153 103.769 50.9347C104.133 51.5483 104.314 52.2756 104.314 53.1165C104.314 54.054 104.076 54.892 103.598 55.6307C103.121 56.3636 102.431 56.9432 101.527 57.3693C100.624 57.7898 99.5274 58 98.2376 58H90.4052ZM94.624 54.5994H97.2319C98.1467 54.5994 98.82 54.4261 99.2518 54.0795C99.6893 53.733 99.9081 53.25 99.9081 52.6307C99.9081 52.1818 99.803 51.7955 99.5927 51.4716C99.3825 51.142 99.0842 50.8892 98.6979 50.7131C98.3115 50.5312 97.8484 50.4403 97.3087 50.4403H94.624V54.5994ZM94.624 47.7216H96.9592C97.4194 47.7216 97.8285 47.6449 98.1865 47.4915C98.5444 47.3381 98.8229 47.1165 99.0217 46.8267C99.2263 46.5369 99.3285 46.1875 99.3285 45.7784C99.3285 45.1932 99.1212 44.733 98.7064 44.3977C98.2916 44.0625 97.7319 43.8949 97.0274 43.8949H94.624V47.7216ZM104.903 58V44.9091H109.07V58H104.903ZM106.991 43.3835C106.406 43.3835 105.903 43.1903 105.482 42.804C105.062 42.4119 104.852 41.9403 104.852 41.3892C104.852 40.8437 105.062 40.3778 105.482 39.9915C105.903 39.5994 106.406 39.4034 106.991 39.4034C107.582 39.4034 108.085 39.5994 108.499 39.9915C108.92 40.3778 109.13 40.8437 109.13 41.3892C109.13 41.9403 108.92 42.4119 108.499 42.804C108.085 43.1903 107.582 43.3835 106.991 43.3835ZM117.672 44.9091V47.9773H109.414V44.9091H117.672ZM111.144 41.7727H115.311V53.8835C115.311 54.1392 115.351 54.3466 115.431 54.5057C115.516 54.6591 115.638 54.7699 115.797 54.8381C115.956 54.9006 116.147 54.9318 116.368 54.9318C116.527 54.9318 116.695 54.9176 116.871 54.8892C117.053 54.8551 117.189 54.8267 117.28 54.804L117.911 57.8125C117.712 57.8693 117.431 57.9403 117.067 58.0256C116.709 58.1108 116.28 58.1648 115.78 58.1875C114.803 58.233 113.965 58.1193 113.266 57.8466C112.573 57.5682 112.042 57.1364 111.672 56.5511C111.309 55.9659 111.132 55.2301 111.144 54.3438V41.7727ZM125.748 44.9091V47.9773H117.489V44.9091H125.748ZM119.219 41.7727H123.387V53.8835C123.387 54.1392 123.427 54.3466 123.506 54.5057C123.592 54.6591 123.714 54.7699 123.873 54.8381C124.032 54.9006 124.222 54.9318 124.444 54.9318C124.603 54.9318 124.771 54.9176 124.947 54.8892C125.129 54.8551 125.265 54.8267 125.356 54.804L125.987 57.8125C125.788 57.8693 125.506 57.9403 125.143 58.0256C124.785 58.1108 124.356 58.1648 123.856 58.1875C122.879 58.233 122.04 58.1193 121.342 57.8466C120.648 57.5682 120.117 57.1364 119.748 56.5511C119.384 55.9659 119.208 55.2301 119.219 54.3438V41.7727ZM132.413 58.2472C131.044 58.2472 129.862 57.9773 128.868 57.4375C127.879 56.892 127.118 56.1165 126.583 55.1108C126.055 54.0994 125.791 52.8977 125.791 51.5057C125.791 50.1534 126.058 48.9716 126.592 47.9602C127.126 46.9432 127.879 46.1534 128.85 45.5909C129.822 45.0227 130.967 44.7386 132.285 44.7386C133.217 44.7386 134.069 44.8835 134.842 45.1733C135.615 45.4631 136.282 45.892 136.845 46.4602C137.407 47.0284 137.845 47.7301 138.157 48.5653C138.47 49.3949 138.626 50.3466 138.626 51.4205V52.4602H127.248V50.0398H134.748C134.743 49.5966 134.637 49.2017 134.433 48.8551C134.228 48.5085 133.947 48.2386 133.589 48.0455C133.237 47.8466 132.831 47.7472 132.37 47.7472C131.904 47.7472 131.487 47.8523 131.118 48.0625C130.748 48.267 130.456 48.5483 130.24 48.9062C130.024 49.2585 129.91 49.6591 129.899 50.108V52.571C129.899 53.1051 130.004 53.5739 130.214 53.9773C130.424 54.375 130.723 54.6847 131.109 54.9062C131.495 55.1278 131.956 55.2386 132.49 55.2386C132.859 55.2386 133.194 55.1875 133.495 55.0852C133.797 54.983 134.055 54.8324 134.271 54.6335C134.487 54.4347 134.649 54.1903 134.757 53.9006L138.583 54.0114C138.424 54.8693 138.075 55.6165 137.535 56.2528C137.001 56.8835 136.299 57.375 135.43 57.7273C134.561 58.0739 133.555 58.2472 132.413 58.2472ZM139.315 58V44.9091H143.363V47.2955H143.499C143.738 46.4318 144.127 45.7898 144.667 45.3693C145.207 44.9432 145.835 44.7301 146.55 44.7301C146.744 44.7301 146.942 44.7443 147.147 44.7727C147.352 44.7955 147.542 44.8324 147.718 44.8835V48.5057C147.519 48.4375 147.258 48.3835 146.934 48.3438C146.616 48.304 146.332 48.2841 146.082 48.2841C145.587 48.2841 145.141 48.3949 144.744 48.6165C144.352 48.8324 144.042 49.1364 143.815 49.5284C143.593 49.9148 143.482 50.3693 143.482 50.892V58H139.315ZM148.769 58V40.5455H159.235V42.4205H150.882V48.3182H158.451V50.1932H150.882V58H148.769ZM163.153 40.5455V58H161.142V40.5455H163.153ZM166.693 62.9091C166.352 62.9091 166.048 62.8807 165.781 62.8239C165.514 62.7727 165.329 62.7216 165.227 62.6705L165.738 60.8977C166.227 61.0227 166.659 61.0682 167.034 61.0341C167.409 61 167.741 60.8324 168.031 60.5312C168.326 60.2358 168.596 59.7557 168.84 59.0909L169.215 58.0682L164.375 44.9091H166.556L170.17 55.3409H170.306L173.92 44.9091H176.102L170.545 59.9091C170.295 60.5852 169.985 61.1449 169.616 61.5881C169.247 62.0369 168.818 62.3693 168.329 62.5852C167.846 62.8011 167.301 62.9091 166.693 62.9091Z" fill="#171717"/>
<path d="M49.6667 42.4035L64.3333 51.6667V55.3334L49.6667 50.7018V60.5277L55.1667 63.5834V66.3334L46.9167 64.5L38.6667 66.3334V63.5834L44.1667 60.5277V50.7018L29.5 55.3334V51.6667L44.1667 42.4035V32.4167C44.1667 30.8979 45.3979 29.6667 46.9167 29.6667C48.4354 29.6667 49.6667 30.8979 49.6667 32.4167V42.4035Z" fill="#404040"/>
</svg>
