<svg width="218" height="96" viewBox="0 0 218 96" fill="none" xmlns="http://www.w3.org/2000/svg">
<path d="M81.084 40.1045H86.333L88.2251 50.1021L90.9839 40.1045H96.2207L98.9917 50.1021L100.884 40.1045H106.108L102.166 58H96.7456L93.6084 46.7329L90.4834 58H85.0635L81.084 40.1045ZM106.647 40.1045H112.189V58H106.647V40.1045ZM114.742 58V40.1045H123.958C125.667 40.1045 126.973 40.251 127.876 40.5439C128.78 40.8369 129.508 41.3822 130.062 42.1797C130.615 42.9691 130.892 43.9334 130.892 45.0728C130.892 46.0656 130.68 46.9242 130.257 47.6484C129.834 48.3646 129.252 48.9465 128.511 49.394C128.039 49.6789 127.392 49.9149 126.57 50.1021C127.229 50.3218 127.71 50.5415 128.011 50.7612C128.214 50.9077 128.507 51.221 128.89 51.7012C129.28 52.1813 129.541 52.5516 129.671 52.812L132.344 58H126.094L123.14 52.5312C122.766 51.8232 122.432 51.3634 122.139 51.1519C121.74 50.8752 121.289 50.7368 120.784 50.7368H120.296V58H114.742ZM120.296 47.3555H122.627C122.88 47.3555 123.368 47.2741 124.092 47.1113C124.458 47.0381 124.756 46.8509 124.983 46.5498C125.219 46.2487 125.337 45.9028 125.337 45.5122C125.337 44.9344 125.154 44.4909 124.788 44.1816C124.422 43.8724 123.734 43.7178 122.725 43.7178H120.296V47.3555ZM143.637 55.0459H137.338L136.472 58H130.82L137.546 40.1045H143.576L150.302 58H144.516L143.637 55.0459ZM142.478 51.1763L140.5 44.7432L138.535 51.1763H142.478ZM150.621 40.1045H155.785L162.523 50.0044V40.1045H167.735V58H162.523L155.821 48.1733V58H150.621V40.1045ZM178.906 51.5181V47.7949H187.451V55.4243C185.815 56.5392 184.367 57.3001 183.105 57.707C181.852 58.1058 180.363 58.3052 178.638 58.3052C176.514 58.3052 174.78 57.943 173.438 57.2188C172.103 56.4945 171.065 55.4162 170.325 53.9839C169.592 52.5516 169.226 50.9077 169.226 49.0522C169.226 47.0991 169.629 45.4023 170.435 43.9619C171.24 42.5133 172.42 41.4147 173.975 40.666C175.187 40.0882 176.819 39.7993 178.87 39.7993C180.847 39.7993 182.324 39.9784 183.301 40.3364C184.285 40.6945 185.099 41.252 185.742 42.0088C186.393 42.7575 186.882 43.7096 187.207 44.8652L181.873 45.8174C181.653 45.1419 181.278 44.6252 180.75 44.2671C180.229 43.909 179.561 43.73 178.748 43.73C177.535 43.73 176.567 44.1532 175.842 44.9995C175.126 45.8377 174.768 47.1683 174.768 48.9912C174.768 50.9281 175.13 52.3115 175.854 53.1416C176.587 53.9717 177.604 54.3867 178.906 54.3867C179.525 54.3867 180.115 54.2972 180.676 54.1182C181.238 53.9391 181.881 53.634 182.605 53.2026V51.5181H178.906Z" fill="#171717"/>
<path d="M62.5089 31.5C63.5215 31.5 64.3422 32.3208 64.3422 33.3333V43.4167C61.811 43.4167 59.7589 45.4687 59.7589 48C59.7589 50.5313 61.811 52.5833 64.3422 52.5833V62.6667C64.3422 63.6792 63.5215 64.5 62.5089 64.5H29.5089C28.4964 64.5 27.6755 63.6792 27.6755 62.6667V52.5833C30.2068 52.5833 32.2589 50.5313 32.2589 48C32.2589 45.4687 30.2068 43.4167 27.6755 43.4167V33.3333C27.6755 32.3208 28.4964 31.5 29.5089 31.5H62.5089ZM60.6756 35.1667H31.3422V40.608L31.628 40.7566C34.0821 42.0986 35.7794 44.6514 35.9166 47.6117L35.9255 48C35.9255 51.1244 34.1888 53.843 31.628 55.2433L31.3422 55.3902V60.8333H60.6756V55.3902L60.3898 55.2433C57.9357 53.9015 56.2384 51.3486 56.1012 48.3883L56.0922 48C56.0922 44.8756 57.829 42.1569 60.3898 40.7566L60.6756 40.608V35.1667ZM53.3422 42.5V53.5H38.6755V42.5H53.3422Z" fill="#404040"/>
</svg>
